<svg xmlns="http://www.w3.org/2000/svg" viewBox="0 0 400 240">
  <defs>
    <linearGradient id="bg" x1="0%" y1="0%" x2="100%" y2="100%">
      <stop offset="0%" style="stop-color:#0F0A1E"/>
      <stop offset="100%" style="stop-color:#1a0a3e"/>
    </linearGradient>
    <linearGradient id="purple" x1="0%" y1="0%" x2="100%" y2="100%">
      <stop offset="0%" style="stop-color:#7C3AED"/>
      <stop offset="100%" style="stop-color:#4F46E5"/>
    </linearGradient>
  </defs>
  <rect width="400" height="240" fill="url(#bg)" rx="12"/>
  <rect x="24" y="24" width="44" height="44" rx="10" fill="url(#purple)"/>
  <text x="46" y="52" font-family="system-ui" font-size="22" font-weight="900" fill="white" text-anchor="middle">X</text>
  <text x="80" y="44" font-family="system-ui" font-size="15" font-weight="800" fill="white">Colruyt Group</text>
  <text x="80" y="62" font-family="system-ui" font-size="13" font-weight="500" fill="rgba(255,255,255,0.5)">Loyalty POC</text>
  <rect x="24" y="90" width="80" height="52" rx="8" fill="rgba(124,58,237,0.25)" stroke="rgba(124,58,237,0.5)" stroke-width="1"/>
  <text x="64" y="113" font-family="system-ui" font-size="11" fill="rgba(255,255,255,0.6)" text-anchor="middle">Klant</text>
  <text x="64" y="133" font-family="system-ui" font-size="16" fill="white" text-anchor="middle">👤</text>
  <rect x="114" y="90" width="80" height="52" rx="8" fill="rgba(79,70,229,0.25)" stroke="rgba(79,70,229,0.5)" stroke-width="1"/>
  <text x="154" y="113" font-family="system-ui" font-size="11" fill="rgba(255,255,255,0.6)" text-anchor="middle">Marketer</text>
  <text x="154" y="133" font-family="system-ui" font-size="16" fill="white" text-anchor="middle">📊</text>
  <rect x="204" y="90" width="80" height="52" rx="8" fill="rgba(99,102,241,0.25)" stroke="rgba(99,102,241,0.5)" stroke-width="1"/>
  <text x="244" y="113" font-family="system-ui" font-size="11" fill="rgba(255,255,255,0.6)" text-anchor="middle">Team</text>
  <text x="244" y="133" font-family="system-ui" font-size="16" fill="white" text-anchor="middle">🏪</text>
  <rect x="294" y="90" width="82" height="52" rx="8" fill="rgba(139,92,246,0.25)" stroke="rgba(139,92,246,0.5)" stroke-width="1"/>
  <text x="335" y="113" font-family="system-ui" font-size="11" fill="rgba(255,255,255,0.6)" text-anchor="middle">Groep</text>
  <text x="335" y="133" font-family="system-ui" font-size="16" fill="white" text-anchor="middle">🏢</text>
  <rect x="24" y="160" width="352" height="4" rx="2" fill="rgba(255,255,255,0.08)"/>
  <rect x="24" y="160" width="220" height="4" rx="2" fill="url(#purple)"/>
  <rect x="24" y="182" width="56" height="22" rx="6" fill="rgba(124,58,237,0.3)" stroke="rgba(124,58,237,0.5)" stroke-width="1"/>
  <text x="52" y="197" font-family="system-ui" font-size="10" font-weight="700" fill="#A78BFA" text-anchor="middle">XTRA</text>
  <text x="90" y="197" font-family="system-ui" font-size="10" fill="rgba(255,255,255,0.35)">9 interactieve views · master protected</text>
</svg>
