<svg xmlns="http://www.w3.org/2000/svg" viewBox="0 0 600 300">
  <defs>
    <linearGradient id="bg" x1="0%" y1="0%" x2="100%" y2="100%">
      <stop offset="0%" style="stop-color:#0F0A1E"/>
      <stop offset="100%" style="stop-color:#1a0a3e"/>
    </linearGradient>
    <linearGradient id="pur" x1="0%" y1="0%" x2="100%" y2="100%">
      <stop offset="0%" style="stop-color:#7C3AED"/>
      <stop offset="100%" style="stop-color:#4F46E5"/>
    </linearGradient>
    <linearGradient id="gold" x1="0%" y1="0%" x2="100%" y2="0%">
      <stop offset="0%" style="stop-color:#B45309"/>
      <stop offset="100%" style="stop-color:#D97706"/>
    </linearGradient>
  </defs>

  <!-- Background -->
  <rect width="600" height="300" fill="url(#bg)"/>

  <!-- Nav bar -->
  <rect x="0" y="0" width="600" height="40" fill="rgba(255,255,255,0.04)" stroke="rgba(255,255,255,0.07)" stroke-width="1"/>
  <rect x="16" y="10" width="22" height="22" rx="5" fill="url(#pur)"/>
  <text x="27" y="25" font-family="system-ui" font-size="11" font-weight="900" fill="white" text-anchor="middle">X</text>
  <text x="46" y="25" font-family="system-ui" font-size="11" font-weight="800" fill="white">Xtra Loyalty</text>
  <rect x="114" y="13" width="60" height="16" rx="4" fill="rgba(124,58,237,0.3)" stroke="rgba(124,58,237,0.5)" stroke-width="1"/>
  <text x="144" y="25" font-family="system-ui" font-size="9" font-weight="700" fill="#A78BFA" text-anchor="middle">Proof of Concept</text>

  <!-- Stat cards row -->
  <rect x="16" y="54" width="120" height="56" rx="8" fill="rgba(255,255,255,0.05)" stroke="rgba(255,255,255,0.1)" stroke-width="1"/>
  <text x="28" y="72" font-family="system-ui" font-size="8" fill="rgba(255,255,255,0.45)">Xtra-leden</text>
  <text x="28" y="94" font-family="system-ui" font-size="20" font-weight="800" fill="white">2.847</text>
  <text x="28" y="106" font-family="system-ui" font-size="8" fill="#86EFAC">▲ +12%</text>

  <rect x="146" y="54" width="120" height="56" rx="8" fill="rgba(255,255,255,0.05)" stroke="rgba(255,255,255,0.1)" stroke-width="1"/>
  <text x="158" y="72" font-family="system-ui" font-size="8" fill="rgba(255,255,255,0.45)">Gespaard</text>
  <text x="158" y="94" font-family="system-ui" font-size="20" font-weight="800" fill="#A78BFA">€428</text>
  <text x="158" y="106" font-family="system-ui" font-size="8" fill="rgba(255,255,255,0.4)">gem. per lid</text>

  <rect x="276" y="54" width="120" height="56" rx="8" fill="rgba(255,255,255,0.05)" stroke="rgba(255,255,255,0.1)" stroke-width="1"/>
  <text x="288" y="72" font-family="system-ui" font-size="8" fill="rgba(255,255,255,0.45)">Merken actief</text>
  <text x="288" y="94" font-family="system-ui" font-size="20" font-weight="800" fill="white">5</text>
  <text x="288" y="106" font-family="system-ui" font-size="8" fill="rgba(255,255,255,0.4)">in deze POC</text>

  <rect x="406" y="54" width="178" height="56" rx="8" fill="rgba(180,83,9,0.2)" stroke="rgba(180,83,9,0.4)" stroke-width="1"/>
  <text x="418" y="72" font-family="system-ui" font-size="8" fill="rgba(255,255,255,0.45)">Duurzaamheid</text>
  <text x="418" y="94" font-family="system-ui" font-size="20" font-weight="800" fill="#FCD34D">-18%</text>
  <text x="418" y="106" font-family="system-ui" font-size="8" fill="rgba(255,255,255,0.4)">CO₂ vs vorig jaar</text>

  <!-- Perspective cards -->
  <rect x="16" y="124" width="130" height="90" rx="8" fill="rgba(124,58,237,0.18)" stroke="rgba(124,58,237,0.4)" stroke-width="1"/>
  <text x="81" y="150" font-family="system-ui" font-size="18" text-anchor="middle">👤</text>
  <text x="81" y="168" font-family="system-ui" font-size="10" font-weight="700" fill="white" text-anchor="middle">Klant</text>
  <text x="81" y="181" font-family="system-ui" font-size="8" fill="rgba(255,255,255,0.45)" text-anchor="middle">Xtra app view</text>
  <rect x="30" y="190" width="72" height="14" rx="4" fill="rgba(124,58,237,0.5)"/>
  <text x="66" y="201" font-family="system-ui" font-size="8" font-weight="600" fill="white" text-anchor="middle">Open →</text>

  <rect x="156" y="124" width="130" height="90" rx="8" fill="rgba(79,70,229,0.18)" stroke="rgba(79,70,229,0.4)" stroke-width="1"/>
  <text x="221" y="150" font-family="system-ui" font-size="18" text-anchor="middle">📊</text>
  <text x="221" y="168" font-family="system-ui" font-size="10" font-weight="700" fill="white" text-anchor="middle">Marketer</text>
  <text x="221" y="181" font-family="system-ui" font-size="8" fill="rgba(255,255,255,0.45)" text-anchor="middle">Campagne dashboard</text>
  <rect x="170" y="190" width="72" height="14" rx="4" fill="rgba(79,70,229,0.5)"/>
  <text x="206" y="201" font-family="system-ui" font-size="8" font-weight="600" fill="white" text-anchor="middle">Open →</text>

  <rect x="296" y="124" width="130" height="90" rx="8" fill="rgba(99,102,241,0.18)" stroke="rgba(99,102,241,0.4)" stroke-width="1"/>
  <text x="361" y="150" font-family="system-ui" font-size="18" text-anchor="middle">🏪</text>
  <text x="361" y="168" font-family="system-ui" font-size="10" font-weight="700" fill="white" text-anchor="middle">Team</text>
  <text x="361" y="181" font-family="system-ui" font-size="8" fill="rgba(255,255,255,0.45)" text-anchor="middle">Intern dashboard</text>
  <rect x="310" y="190" width="72" height="14" rx="4" fill="rgba(99,102,241,0.5)"/>
  <text x="346" y="201" font-family="system-ui" font-size="8" font-weight="600" fill="white" text-anchor="middle">Open →</text>

  <rect x="436" y="124" width="148" height="90" rx="8" fill="rgba(139,92,246,0.18)" stroke="rgba(139,92,246,0.4)" stroke-width="1"/>
  <text x="510" y="150" font-family="system-ui" font-size="18" text-anchor="middle">🏢</text>
  <text x="510" y="168" font-family="system-ui" font-size="10" font-weight="700" fill="white" text-anchor="middle">Groep</text>
  <text x="510" y="181" font-family="system-ui" font-size="8" fill="rgba(255,255,255,0.45)" text-anchor="middle">Impact &amp; overzicht</text>
  <rect x="450" y="190" width="72" height="14" rx="4" fill="rgba(139,92,246,0.5)"/>
  <text x="486" y="201" font-family="system-ui" font-size="8" font-weight="600" fill="white" text-anchor="middle">Open →</text>

  <!-- Bottom brand pills -->
  <rect x="16" y="228" width="600" height="1" fill="rgba(255,255,255,0.07)"/>
  <text x="16" y="248" font-family="system-ui" font-size="8" fill="rgba(255,255,255,0.3)">Merken:</text>
  <rect x="58" y="236" width="52" height="18" rx="5" fill="rgba(204,0,0,0.2)" stroke="rgba(204,0,0,0.4)" stroke-width="1"/>
  <text x="84" y="249" font-family="system-ui" font-size="8" font-weight="600" fill="#FCA5A5" text-anchor="middle">Colruyt</text>
  <rect x="118" y="236" width="40" height="18" rx="5" fill="rgba(204,0,0,0.15)" stroke="rgba(204,0,0,0.3)" stroke-width="1"/>
  <text x="138" y="249" font-family="system-ui" font-size="8" font-weight="600" fill="#FCA5A5" text-anchor="middle">OKay</text>
  <rect x="166" y="236" width="60" height="18" rx="5" fill="rgba(46,125,50,0.2)" stroke="rgba(46,125,50,0.4)" stroke-width="1"/>
  <text x="196" y="249" font-family="system-ui" font-size="8" font-weight="600" fill="#86EFAC" text-anchor="middle">Bio-Planet</text>
  <rect x="234" y="236" width="34" height="18" rx="5" fill="rgba(201,162,39,0.2)" stroke="rgba(201,162,39,0.4)" stroke-width="1"/>
  <text x="251" y="249" font-family="system-ui" font-size="8" font-weight="600" fill="#FCD34D" text-anchor="middle">Jims</text>
  <rect x="276" y="236" width="70" height="18" rx="5" fill="rgba(0,85,179,0.2)" stroke="rgba(0,85,179,0.4)" stroke-width="1"/>
  <text x="311" y="249" font-family="system-ui" font-size="8" font-weight="600" fill="#93C5FD" text-anchor="middle">Newpharma</text>

  <text x="584" y="249" font-family="system-ui" font-size="8" fill="rgba(255,255,255,0.2)" text-anchor="end">Confidentieel · 2026</text>

  <!-- Progress bar bottom -->
  <rect x="0" y="292" width="600" height="8" fill="rgba(255,255,255,0.04)"/>
  <rect x="0" y="292" width="380" height="8" fill="url(#pur)" opacity="0.7"/>
</svg>
