<svg xmlns="http://www.w3.org/2000/svg" viewBox="0 0 600 300">
  <defs>
    <linearGradient id="g" x1="0%" y1="0%" x2="100%" y2="100%">
      <stop offset="0%" style="stop-color:#1e1b4b"/>
      <stop offset="100%" style="stop-color:#312e81"/>
    </linearGradient>
  </defs>
  <rect width="600" height="300" fill="url(#g)"/>
  <!-- Timeline bar -->
  <rect x="60" y="140" width="480" height="4" rx="2" fill="#6366f1" opacity="0.4"/>
  <!-- Milestones -->
  <circle cx="120" cy="142" r="10" fill="#6366f1"/>
  <circle cx="240" cy="142" r="10" fill="#818cf8"/>
  <circle cx="380" cy="142" r="10" fill="#6366f1"/>
  <circle cx="500" cy="142" r="10" fill="#4f46e5"/>
  <!-- Labels boven -->
  <rect x="90" y="100" width="90" height="28" rx="6" fill="#312e81" stroke="#6366f1" stroke-width="1"/>
  <text x="135" y="119" font-family="system-ui" font-size="11" fill="#a5b4fc" text-anchor="middle">Q1 2026</text>
  <rect x="210" y="100" width="90" height="28" rx="6" fill="#312e81" stroke="#818cf8" stroke-width="1"/>
  <text x="255" y="119" font-family="system-ui" font-size="11" fill="#a5b4fc" text-anchor="middle">Q2 2026</text>
  <rect x="350" y="100" width="90" height="28" rx="6" fill="#312e81" stroke="#6366f1" stroke-width="1"/>
  <text x="395" y="119" font-family="system-ui" font-size="11" fill="#a5b4fc" text-anchor="middle">Q3 2026</text>
  <!-- Cards onder -->
  <rect x="80" y="165" width="110" height="50" rx="8" fill="#1e1b4b" stroke="#4338ca" stroke-width="1"/>
  <text x="135" y="186" font-family="system-ui" font-size="9" fill="#818cf8" text-anchor="middle">Strategie</text>
  <text x="135" y="200" font-family="system-ui" font-size="8" fill="#6366f1" text-anchor="middle">● Actief</text>
  <rect x="210" y="165" width="110" height="50" rx="8" fill="#1e1b4b" stroke="#6366f1" stroke-width="1"/>
  <text x="265" y="186" font-family="system-ui" font-size="9" fill="#818cf8" text-anchor="middle">Uitvoering</text>
  <rect x="340" y="165" width="110" height="50" rx="8" fill="#1e1b4b" stroke="#4338ca" stroke-width="1"/>
  <text x="395" y="186" font-family="system-ui" font-size="9" fill="#818cf8" text-anchor="middle">Review</text>
  <!-- Title -->
  <text x="300" y="265" font-family="system-ui" font-size="14" font-weight="700" fill="#c7d2fe" text-anchor="middle" opacity="0.8">Roadmap Studio</text>
</svg>
